<svg xmlns="http://www.w3.org/2000/svg" width="1280" height="760" viewBox="0 0 1280 760" role="img" aria-label="Provider performance dashboard mockup">
  <rect width="1280" height="760" fill="#f8fafc"/>
  <rect x="42" y="36" width="1196" height="688" rx="18" fill="#ffffff" stroke="#d8dee9"/>
  <text x="74" y="88" font-family="Inter, Arial, sans-serif" font-size="34" font-weight="700" fill="#111827">Provider Performance and Network Leakage</text>
  <text x="76" y="120" font-family="Inter, Arial, sans-serif" font-size="16" fill="#64748b">Built from provider_claims_summary, fct_claims, and network_status dimensions</text>

  <rect x="74" y="158" width="520" height="500" rx="12" fill="#ffffff" stroke="#d8dee9"/>
  <text x="100" y="202" font-family="Inter, Arial, sans-serif" font-size="21" font-weight="700" fill="#1f2937">Top Providers by Approved/Paid Amount</text>
  <g font-family="Inter, Arial, sans-serif" font-size="15" fill="#334155">
    <text x="100" y="252">Peachtree Women's Center</text>
    <rect x="100" y="270" width="420" height="24" rx="5" fill="#0f766e"/>
    <text x="532" y="289">$3.8M</text>
    <text x="100" y="330">Rocky Mountain Orthopedics</text>
    <rect x="100" y="348" width="344" height="24" rx="5" fill="#1d4ed8"/>
    <text x="456" y="367">$3.1M</text>
    <text x="100" y="408">Suncoast Nephrology</text>
    <rect x="100" y="426" width="300" height="24" rx="5" fill="#7c3aed"/>
    <text x="412" y="445">$2.7M</text>
    <text x="100" y="486">Pacific Family Clinic</text>
    <rect x="100" y="504" width="210" height="24" rx="5" fill="#f59e0b"/>
    <text x="322" y="523">$1.9M</text>
  </g>

  <rect x="626" y="158" width="542" height="238" rx="12" fill="#ffffff" stroke="#d8dee9"/>
  <text x="652" y="202" font-family="Inter, Arial, sans-serif" font-size="21" font-weight="700" fill="#1f2937">Network Spend Mix</text>
  <circle cx="764" cy="284" r="76" fill="none" stroke="#0f766e" stroke-width="34"/>
  <path d="M764 208 A76 76 0 0 1 835 311" fill="none" stroke="#ef4444" stroke-width="34"/>
  <text x="890" y="266" font-family="Inter, Arial, sans-serif" font-size="17" fill="#334155">In network: 88%</text>
  <text x="890" y="304" font-family="Inter, Arial, sans-serif" font-size="17" fill="#334155">Out of network: 12%</text>

  <rect x="626" y="420" width="542" height="238" rx="12" fill="#ffffff" stroke="#d8dee9"/>
  <text x="652" y="464" font-family="Inter, Arial, sans-serif" font-size="21" font-weight="700" fill="#1f2937">Provider Quality Watchlist</text>
  <line x1="652" y1="500" x2="1140" y2="500" stroke="#e2e8f0"/>
  <text x="652" y="532" font-family="Inter, Arial, sans-serif" font-size="15" fill="#334155">High denial rate</text>
  <text x="1068" y="532" font-family="Inter, Arial, sans-serif" font-size="15" font-weight="700" fill="#ef4444">9.4%</text>
  <line x1="652" y1="556" x2="1140" y2="556" stroke="#e2e8f0"/>
  <text x="652" y="588" font-family="Inter, Arial, sans-serif" font-size="15" fill="#334155">Pending claim exposure</text>
  <text x="1042" y="588" font-family="Inter, Arial, sans-serif" font-size="15" font-weight="700" fill="#f59e0b">$420K</text>
  <line x1="652" y1="612" x2="1140" y2="612" stroke="#e2e8f0"/>
  <text x="652" y="644" font-family="Inter, Arial, sans-serif" font-size="15" fill="#334155">Out-of-network amount</text>
  <text x="1032" y="644" font-family="Inter, Arial, sans-serif" font-size="15" font-weight="700" fill="#ef4444">$1.6M</text>
</svg>
